<mxfile host="app.diagrams.net" modified="2021-06-21T20:07:55.755Z" agent="5.0 (Windows NT 10.0; Win64; x64) AppleWebKit/537.36 (KHTML, like Gecko) Chrome/91.0.4472.114 Safari/537.36" etag="Y54iRDRzeltnOjaKz8oj" version="14.7.10" type="github">
  <diagram id="c0nvDh5sYAMC8LaI1VMU" name="Page-1">
    <mxGraphModel dx="1865" dy="1716" grid="1" gridSize="10" guides="1" tooltips="1" connect="1" arrows="1" fold="1" page="1" pageScale="1" pageWidth="827" pageHeight="1169" math="0" shadow="0">
      <root>
        <mxCell id="0" />
        <mxCell id="1" parent="0" />
        <mxCell id="OlVB1A8E8Q_b--ozMuMu-2" value="Начало" style="rounded=1;whiteSpace=wrap;html=1;arcSize=50;strokeWidth=0.5;" parent="1" vertex="1">
          <mxGeometry x="349" y="-80" width="142" height="40.87" as="geometry" />
        </mxCell>
        <mxCell id="OlVB1A8E8Q_b--ozMuMu-3" value="Получение параметров из формы&lt;br&gt;&lt;i&gt;Period, Type, Hour&lt;/i&gt;" style="rounded=0;whiteSpace=wrap;html=1;strokeWidth=0.5;" parent="1" vertex="1">
          <mxGeometry x="349" width="142" height="95" as="geometry" />
        </mxCell>
        <mxCell id="P7hi3-GjARlAsn2LffGV-1" style="edgeStyle=orthogonalEdgeStyle;rounded=0;orthogonalLoop=1;jettySize=auto;html=1;exitX=0;exitY=0.5;exitDx=0;exitDy=0;entryX=0.5;entryY=0;entryDx=0;entryDy=0;strokeWidth=0.5;" parent="1" source="OlVB1A8E8Q_b--ozMuMu-4" target="OlVB1A8E8Q_b--ozMuMu-127" edge="1">
          <mxGeometry relative="1" as="geometry" />
        </mxCell>
        <mxCell id="P7hi3-GjARlAsn2LffGV-2" style="edgeStyle=orthogonalEdgeStyle;rounded=0;orthogonalLoop=1;jettySize=auto;html=1;exitX=1;exitY=0.5;exitDx=0;exitDy=0;entryX=0.5;entryY=0;entryDx=0;entryDy=0;strokeWidth=0.5;" parent="1" source="OlVB1A8E8Q_b--ozMuMu-4" target="OlVB1A8E8Q_b--ozMuMu-126" edge="1">
          <mxGeometry relative="1" as="geometry" />
        </mxCell>
        <mxCell id="OlVB1A8E8Q_b--ozMuMu-4" value="&lt;font style=&quot;font-size: 10px&quot;&gt;Выбрана линейная &lt;br&gt;интерполяция?&lt;br&gt;&amp;nbsp;Type = &quot;Type_lin&quot;&lt;/font&gt;" style="rhombus;whiteSpace=wrap;html=1;strokeWidth=0.5;" parent="1" vertex="1">
          <mxGeometry x="349" y="140" width="142" height="95" as="geometry" />
        </mxCell>
        <mxCell id="P7hi3-GjARlAsn2LffGV-10" style="edgeStyle=orthogonalEdgeStyle;rounded=0;orthogonalLoop=1;jettySize=auto;html=1;exitX=0;exitY=0.5;exitDx=0;exitDy=0;entryX=0.5;entryY=0;entryDx=0;entryDy=0;strokeWidth=0.5;" parent="1" source="OlVB1A8E8Q_b--ozMuMu-6" target="OlVB1A8E8Q_b--ozMuMu-9" edge="1">
          <mxGeometry relative="1" as="geometry" />
        </mxCell>
        <mxCell id="P7hi3-GjARlAsn2LffGV-11" style="edgeStyle=orthogonalEdgeStyle;rounded=0;orthogonalLoop=1;jettySize=auto;html=1;exitX=1;exitY=0.5;exitDx=0;exitDy=0;entryX=0.5;entryY=0;entryDx=0;entryDy=0;strokeWidth=0.5;" parent="1" source="OlVB1A8E8Q_b--ozMuMu-6" target="OlVB1A8E8Q_b--ozMuMu-84" edge="1">
          <mxGeometry relative="1" as="geometry" />
        </mxCell>
        <mxCell id="OlVB1A8E8Q_b--ozMuMu-6" value="&lt;font style=&quot;font-size: 10px&quot;&gt;Выбран весь период?&amp;nbsp;&lt;br&gt;Period = &quot;All_period&quot;&lt;/font&gt;" style="rhombus;whiteSpace=wrap;html=1;strokeWidth=0.5;" parent="1" vertex="1">
          <mxGeometry x="709" y="350" width="142" height="95" as="geometry" />
        </mxCell>
        <mxCell id="P7hi3-GjARlAsn2LffGV-3" style="edgeStyle=orthogonalEdgeStyle;rounded=0;orthogonalLoop=1;jettySize=auto;html=1;exitX=0;exitY=0.5;exitDx=0;exitDy=0;entryX=0.5;entryY=0;entryDx=0;entryDy=0;strokeWidth=0.5;" parent="1" source="OlVB1A8E8Q_b--ozMuMu-7" target="OlVB1A8E8Q_b--ozMuMu-8" edge="1">
          <mxGeometry relative="1" as="geometry" />
        </mxCell>
        <mxCell id="P7hi3-GjARlAsn2LffGV-4" style="edgeStyle=orthogonalEdgeStyle;rounded=0;orthogonalLoop=1;jettySize=auto;html=1;exitX=1;exitY=0.5;exitDx=0;exitDy=0;entryX=0.5;entryY=0;entryDx=0;entryDy=0;strokeWidth=0.5;" parent="1" source="OlVB1A8E8Q_b--ozMuMu-7" target="OlVB1A8E8Q_b--ozMuMu-82" edge="1">
          <mxGeometry relative="1" as="geometry" />
        </mxCell>
        <mxCell id="OlVB1A8E8Q_b--ozMuMu-7" value="&lt;font style=&quot;font-size: 10px&quot;&gt;Выбран весь период?&lt;br&gt;&amp;nbsp;Period = &quot;All_period&quot;&lt;/font&gt;" style="rhombus;whiteSpace=wrap;html=1;strokeWidth=0.5;" parent="1" vertex="1">
          <mxGeometry x="-11" y="350" width="142" height="95" as="geometry" />
        </mxCell>
        <mxCell id="P7hi3-GjARlAsn2LffGV-6" style="edgeStyle=orthogonalEdgeStyle;rounded=0;orthogonalLoop=1;jettySize=auto;html=1;exitX=0;exitY=0.5;exitDx=0;exitDy=0;entryX=0.5;entryY=0;entryDx=0;entryDy=0;strokeWidth=0.5;" parent="1" source="OlVB1A8E8Q_b--ozMuMu-8" target="OlVB1A8E8Q_b--ozMuMu-76" edge="1">
          <mxGeometry relative="1" as="geometry" />
        </mxCell>
        <mxCell id="P7hi3-GjARlAsn2LffGV-7" style="edgeStyle=orthogonalEdgeStyle;rounded=0;orthogonalLoop=1;jettySize=auto;html=1;exitX=1;exitY=0.5;exitDx=0;exitDy=0;entryX=0.5;entryY=0;entryDx=0;entryDy=0;strokeWidth=0.5;" parent="1" source="OlVB1A8E8Q_b--ozMuMu-8" target="OlVB1A8E8Q_b--ozMuMu-75" edge="1">
          <mxGeometry relative="1" as="geometry" />
        </mxCell>
        <mxCell id="OlVB1A8E8Q_b--ozMuMu-8" value="&lt;font style=&quot;font-size: 10px&quot;&gt;Выбран шаг - 1 час?&lt;br&gt;Hour = &quot;1_Hour&quot;&lt;/font&gt;" style="rhombus;whiteSpace=wrap;html=1;strokeWidth=0.5;" parent="1" vertex="1">
          <mxGeometry x="-230" y="462.5" width="142" height="95" as="geometry" />
        </mxCell>
        <mxCell id="P7hi3-GjARlAsn2LffGV-16" style="edgeStyle=orthogonalEdgeStyle;rounded=0;orthogonalLoop=1;jettySize=auto;html=1;exitX=0;exitY=0.5;exitDx=0;exitDy=0;entryX=0.5;entryY=0;entryDx=0;entryDy=0;strokeWidth=0.5;" parent="1" source="OlVB1A8E8Q_b--ozMuMu-9" target="OlVB1A8E8Q_b--ozMuMu-77" edge="1">
          <mxGeometry relative="1" as="geometry" />
        </mxCell>
        <mxCell id="P7hi3-GjARlAsn2LffGV-17" style="edgeStyle=orthogonalEdgeStyle;rounded=0;orthogonalLoop=1;jettySize=auto;html=1;exitX=1;exitY=0.5;exitDx=0;exitDy=0;entryX=0.5;entryY=0;entryDx=0;entryDy=0;strokeWidth=0.5;" parent="1" source="OlVB1A8E8Q_b--ozMuMu-9" target="OlVB1A8E8Q_b--ozMuMu-80" edge="1">
          <mxGeometry relative="1" as="geometry" />
        </mxCell>
        <mxCell id="OlVB1A8E8Q_b--ozMuMu-9" value="&lt;font style=&quot;font-size: 10px&quot;&gt;Выбран шаг - 1 час?&lt;br&gt;Hour = &quot;1_Hour&quot;&lt;/font&gt;" style="rhombus;whiteSpace=wrap;html=1;strokeWidth=0.5;" parent="1" vertex="1">
          <mxGeometry x="550" y="462.5" width="142" height="95" as="geometry" />
        </mxCell>
        <mxCell id="P7hi3-GjARlAsn2LffGV-33" style="edgeStyle=orthogonalEdgeStyle;rounded=0;orthogonalLoop=1;jettySize=auto;html=1;exitX=0;exitY=0.5;exitDx=0;exitDy=0;entryX=0.5;entryY=0;entryDx=0;entryDy=0;strokeWidth=0.5;" parent="1" source="OlVB1A8E8Q_b--ozMuMu-10" target="OlVB1A8E8Q_b--ozMuMu-79" edge="1">
          <mxGeometry relative="1" as="geometry" />
        </mxCell>
        <mxCell id="P7hi3-GjARlAsn2LffGV-34" style="edgeStyle=orthogonalEdgeStyle;rounded=0;orthogonalLoop=1;jettySize=auto;html=1;exitX=1;exitY=0.5;exitDx=0;exitDy=0;entryX=0.5;entryY=0;entryDx=0;entryDy=0;strokeWidth=0.5;" parent="1" source="OlVB1A8E8Q_b--ozMuMu-10" target="OlVB1A8E8Q_b--ozMuMu-81" edge="1">
          <mxGeometry relative="1" as="geometry" />
        </mxCell>
        <mxCell id="OlVB1A8E8Q_b--ozMuMu-10" value="&lt;font style=&quot;font-size: 10px&quot;&gt;Выбран шаг - 1 час?&lt;br&gt;Hour = &quot;1_Hour&quot;&lt;/font&gt;" style="rhombus;whiteSpace=wrap;html=1;strokeWidth=0.5;" parent="1" vertex="1">
          <mxGeometry x="819.5" y="922.5" width="142" height="95" as="geometry" />
        </mxCell>
        <mxCell id="P7hi3-GjARlAsn2LffGV-31" style="edgeStyle=orthogonalEdgeStyle;rounded=0;orthogonalLoop=1;jettySize=auto;html=1;exitX=1;exitY=0.5;exitDx=0;exitDy=0;entryX=0.5;entryY=0;entryDx=0;entryDy=0;strokeWidth=0.5;" parent="1" source="OlVB1A8E8Q_b--ozMuMu-11" target="OlVB1A8E8Q_b--ozMuMu-78" edge="1">
          <mxGeometry relative="1" as="geometry" />
        </mxCell>
        <mxCell id="OlVB1A8E8Q_b--ozMuMu-11" value="&lt;font style=&quot;font-size: 10px&quot;&gt;Выбран шаг - 1 час?&lt;br&gt;Hour = &quot;1_Hour&quot;&lt;/font&gt;" style="rhombus;whiteSpace=wrap;html=1;strokeWidth=0.5;" parent="1" vertex="1">
          <mxGeometry x="-20" y="930" width="142" height="95" as="geometry" />
        </mxCell>
        <mxCell id="OlVB1A8E8Q_b--ozMuMu-32" value="" style="endArrow=classic;html=1;exitX=0.5;exitY=1;exitDx=0;exitDy=0;entryX=0.5;entryY=0;entryDx=0;entryDy=0;strokeWidth=0.5;" parent="1" source="OlVB1A8E8Q_b--ozMuMu-2" target="OlVB1A8E8Q_b--ozMuMu-3" edge="1">
          <mxGeometry width="50" height="50" relative="1" as="geometry">
            <mxPoint x="480" y="190" as="sourcePoint" />
            <mxPoint x="530" y="140" as="targetPoint" />
          </mxGeometry>
        </mxCell>
        <mxCell id="OlVB1A8E8Q_b--ozMuMu-33" value="" style="endArrow=classic;html=1;entryX=0.5;entryY=0;entryDx=0;entryDy=0;exitX=0.5;exitY=1;exitDx=0;exitDy=0;strokeWidth=0.5;" parent="1" source="OlVB1A8E8Q_b--ozMuMu-3" target="OlVB1A8E8Q_b--ozMuMu-4" edge="1">
          <mxGeometry width="50" height="50" relative="1" as="geometry">
            <mxPoint x="420" y="140" as="sourcePoint" />
            <mxPoint x="530" y="140" as="targetPoint" />
          </mxGeometry>
        </mxCell>
        <mxCell id="OlVB1A8E8Q_b--ozMuMu-35" value="Да&lt;span style=&quot;color: rgba(0 , 0 , 0 , 0) ; font-family: monospace ; font-size: 0px&quot;&gt;%3CmxGraphModel%3E%3Croot%3E%3CmxCell%20id%3D%220%22%2F%3E%3CmxCell%20id%3D%221%22%20parent%3D%220%22%2F%3E%3CmxCell%20id%3D%222%22%20value%3D%22%22%20style%3D%22endArrow%3Dclassic%3Bhtml%3D1%3BentryX%3D0.5%3BentryY%3D0%3BentryDx%3D0%3BentryDy%3D0%3B%22%20edge%3D%221%22%20parent%3D%221%22%3E%3CmxGeometry%20width%3D%2250%22%20height%3D%2250%22%20relative%3D%221%22%20as%3D%22geometry%22%3E%3CmxPoint%20x%3D%22-40%22%20y%3D%22280%22%20as%3D%22sourcePoint%22%2F%3E%3CmxPoint%20x%3D%22-40%22%20y%3D%22360%22%20as%3D%22targetPoint%22%2F%3E%3C%2FmxGeometry%3E%3C%2FmxCell%3E%3C%2Froot%3E%3C%2FmxGraphModel%3E&lt;/span&gt;&lt;span style=&quot;color: rgba(0 , 0 , 0 , 0) ; font-family: monospace ; font-size: 0px&quot;&gt;%3CmxGraphModel%3E%3Croot%3E%3CmxCell%20id%3D%220%22%2F%3E%3CmxCell%20id%3D%221%22%20parent%3D%220%22%2F%3E%3CmxCell%20id%3D%222%22%20value%3D%22%22%20style%3D%22endArrow%3Dclassic%3Bhtml%3D1%3BentryX%3D0.5%3BentryY%3D0%3BentryDx%3D0%3BentryDy%3D0%3B%22%20edge%3D%221%22%20parent%3D%221%22%3E%3CmxGeometry%20width%3D%2250%22%20height%3D%2250%22%20relative%3D%221%22%20as%3D%22geometry%22%3E%3CmxPoint%20x%3D%22-40%22%20y%3D%22280%22%20as%3D%22sourcePoint%22%2F%3E%3CmxPoint%20x%3D%22-40%22%20y%3D%22360%22%20as%3D%22targetPoint%22%2F%3E%3C%2FmxGeometry%3E%3C%2FmxCell%3E%3C%2Froot%3E%3C%2FmxGraphModel%3E&lt;/span&gt;" style="text;html=1;strokeColor=none;fillColor=none;align=center;verticalAlign=middle;whiteSpace=wrap;rounded=0;strokeWidth=0.5;" parent="1" vertex="1">
          <mxGeometry x="299" y="160" width="40" height="20" as="geometry" />
        </mxCell>
        <mxCell id="OlVB1A8E8Q_b--ozMuMu-36" value="Да&lt;span style=&quot;color: rgba(0 , 0 , 0 , 0) ; font-family: monospace ; font-size: 0px&quot;&gt;%3CmxGraphModel%3E%3Croot%3E%3CmxCell%20id%3D%220%22%2F%3E%3CmxCell%20id%3D%221%22%20parent%3D%220%22%2F%3E%3CmxCell%20id%3D%222%22%20value%3D%22%22%20style%3D%22endArrow%3Dclassic%3Bhtml%3D1%3BentryX%3D0.5%3BentryY%3D0%3BentryDx%3D0%3BentryDy%3D0%3B%22%20edge%3D%221%22%20parent%3D%221%22%3E%3CmxGeometry%20width%3D%2250%22%20height%3D%2250%22%20relative%3D%221%22%20as%3D%22geometry%22%3E%3CmxPoint%20x%3D%22-40%22%20y%3D%22280%22%20as%3D%22sourcePoint%22%2F%3E%3CmxPoint%20x%3D%22-40%22%20y%3D%22360%22%20as%3D%22targetPoint%22%2F%3E%3C%2FmxGeometry%3E%3C%2FmxCell%3E%3C%2Froot%3E%3C%2FmxGraphModel%3E&lt;/span&gt;&lt;span style=&quot;color: rgba(0 , 0 , 0 , 0) ; font-family: monospace ; font-size: 0px&quot;&gt;%3CmxGraphModel%3E%3Croot%3E%3CmxCell%20id%3D%220%22%2F%3E%3CmxCell%20id%3D%221%22%20parent%3D%220%22%2F%3E%3CmxCell%20id%3D%222%22%20value%3D%22%22%20style%3D%22endArrow%3Dclassic%3Bhtml%3D1%3BentryX%3D0.5%3BentryY%3D0%3BentryDx%3D0%3BentryDy%3D0%3B%22%20edge%3D%221%22%20parent%3D%221%22%3E%3CmxGeometry%20width%3D%2250%22%20height%3D%2250%22%20relative%3D%221%22%20as%3D%22geometry%22%3E%3CmxPoint%20x%3D%22-40%22%20y%3D%22280%22%20as%3D%22sourcePoint%22%2F%3E%3CmxPoint%20x%3D%22-40%22%20y%3D%22360%22%20as%3D%22targetPoint%22%2F%3E%3C%2FmxGeometry%3E%3C%2FmxCell%3E%3C%2Froot%3E%3C%2FmxGraphModel%3E&lt;/span&gt;" style="text;html=1;strokeColor=none;fillColor=none;align=center;verticalAlign=middle;whiteSpace=wrap;rounded=0;strokeWidth=0.5;" parent="1" vertex="1">
          <mxGeometry x="-270" y="490" width="40" height="20" as="geometry" />
        </mxCell>
        <mxCell id="OlVB1A8E8Q_b--ozMuMu-37" value="Да&lt;span style=&quot;color: rgba(0 , 0 , 0 , 0) ; font-family: monospace ; font-size: 0px&quot;&gt;%3CmxGraphModel%3E%3Croot%3E%3CmxCell%20id%3D%220%22%2F%3E%3CmxCell%20id%3D%221%22%20parent%3D%220%22%2F%3E%3CmxCell%20id%3D%222%22%20value%3D%22%22%20style%3D%22endArrow%3Dclassic%3Bhtml%3D1%3BentryX%3D0.5%3BentryY%3D0%3BentryDx%3D0%3BentryDy%3D0%3B%22%20edge%3D%221%22%20parent%3D%221%22%3E%3CmxGeometry%20width%3D%2250%22%20height%3D%2250%22%20relative%3D%221%22%20as%3D%22geometry%22%3E%3CmxPoint%20x%3D%22-40%22%20y%3D%22280%22%20as%3D%22sourcePoint%22%2F%3E%3CmxPoint%20x%3D%22-40%22%20y%3D%22360%22%20as%3D%22targetPoint%22%2F%3E%3C%2FmxGeometry%3E%3C%2FmxCell%3E%3C%2Froot%3E%3C%2FmxGraphModel%3E&lt;/span&gt;&lt;span style=&quot;color: rgba(0 , 0 , 0 , 0) ; font-family: monospace ; font-size: 0px&quot;&gt;%3CmxGraphModel%3E%3Croot%3E%3CmxCell%20id%3D%220%22%2F%3E%3CmxCell%20id%3D%221%22%20parent%3D%220%22%2F%3E%3CmxCell%20id%3D%222%22%20value%3D%22%22%20style%3D%22endArrow%3Dclassic%3Bhtml%3D1%3BentryX%3D0.5%3BentryY%3D0%3BentryDx%3D0%3BentryDy%3D0%3B%22%20edge%3D%221%22%20parent%3D%221%22%3E%3CmxGeometry%20width%3D%2250%22%20height%3D%2250%22%20relative%3D%221%22%20as%3D%22geometry%22%3E%3CmxPoint%20x%3D%22-40%22%20y%3D%22280%22%20as%3D%22sourcePoint%22%2F%3E%3CmxPoint%20x%3D%22-40%22%20y%3D%22360%22%20as%3D%22targetPoint%22%2F%3E%3C%2FmxGeometry%3E%3C%2FmxCell%3E%3C%2Froot%3E%3C%2FmxGraphModel%3E&lt;/span&gt;" style="text;html=1;strokeColor=none;fillColor=none;align=center;verticalAlign=middle;whiteSpace=wrap;rounded=0;strokeWidth=0.5;" parent="1" vertex="1">
          <mxGeometry x="-48" y="380" width="40" height="20" as="geometry" />
        </mxCell>
        <mxCell id="OlVB1A8E8Q_b--ozMuMu-38" value="Нет" style="text;html=1;strokeColor=none;fillColor=none;align=center;verticalAlign=middle;whiteSpace=wrap;rounded=0;strokeWidth=0.5;" parent="1" vertex="1">
          <mxGeometry x="979.5" y="950" width="40" height="20" as="geometry" />
        </mxCell>
        <mxCell id="OlVB1A8E8Q_b--ozMuMu-39" value="Нет" style="text;html=1;strokeColor=none;fillColor=none;align=center;verticalAlign=middle;whiteSpace=wrap;rounded=0;strokeWidth=0.5;" parent="1" vertex="1">
          <mxGeometry x="851" y="380" width="40" height="20" as="geometry" />
        </mxCell>
        <mxCell id="OlVB1A8E8Q_b--ozMuMu-40" value="Нет" style="text;html=1;strokeColor=none;fillColor=none;align=center;verticalAlign=middle;whiteSpace=wrap;rounded=0;strokeWidth=0.5;" parent="1" vertex="1">
          <mxGeometry x="500" y="160" width="40" height="20" as="geometry" />
        </mxCell>
        <mxCell id="OlVB1A8E8Q_b--ozMuMu-41" value="Да&lt;span style=&quot;color: rgba(0 , 0 , 0 , 0) ; font-family: monospace ; font-size: 0px&quot;&gt;%3CmxGraphModel%3E%3Croot%3E%3CmxCell%20id%3D%220%22%2F%3E%3CmxCell%20id%3D%221%22%20parent%3D%220%22%2F%3E%3CmxCell%20id%3D%222%22%20value%3D%22%22%20style%3D%22endArrow%3Dclassic%3Bhtml%3D1%3BentryX%3D0.5%3BentryY%3D0%3BentryDx%3D0%3BentryDy%3D0%3B%22%20edge%3D%221%22%20parent%3D%221%22%3E%3CmxGeometry%20width%3D%2250%22%20height%3D%2250%22%20relative%3D%221%22%20as%3D%22geometry%22%3E%3CmxPoint%20x%3D%22-40%22%20y%3D%22280%22%20as%3D%22sourcePoint%22%2F%3E%3CmxPoint%20x%3D%22-40%22%20y%3D%22360%22%20as%3D%22targetPoint%22%2F%3E%3C%2FmxGeometry%3E%3C%2FmxCell%3E%3C%2Froot%3E%3C%2FmxGraphModel%3E&lt;/span&gt;&lt;span style=&quot;color: rgba(0 , 0 , 0 , 0) ; font-family: monospace ; font-size: 0px&quot;&gt;%3CmxGraphModel%3E%3Croot%3E%3CmxCell%20id%3D%220%22%2F%3E%3CmxCell%20id%3D%221%22%20parent%3D%220%22%2F%3E%3CmxCell%20id%3D%222%22%20value%3D%22%22%20style%3D%22endArrow%3Dclassic%3Bhtml%3D1%3BentryX%3D0.5%3BentryY%3D0%3BentryDx%3D0%3BentryDy%3D0%3B%22%20edge%3D%221%22%20parent%3D%221%22%3E%3CmxGeometry%20width%3D%2250%22%20height%3D%2250%22%20relative%3D%221%22%20as%3D%22geometry%22%3E%3CmxPoint%20x%3D%22-40%22%20y%3D%22280%22%20as%3D%22sourcePoint%22%2F%3E%3CmxPoint%20x%3D%22-40%22%20y%3D%22360%22%20as%3D%22targetPoint%22%2F%3E%3C%2FmxGeometry%3E%3C%2FmxCell%3E%3C%2Froot%3E%3C%2FmxGraphModel%3E&lt;/span&gt;" style="text;html=1;strokeColor=none;fillColor=none;align=center;verticalAlign=middle;whiteSpace=wrap;rounded=0;strokeWidth=0.5;" parent="1" vertex="1">
          <mxGeometry x="520" y="490" width="40" height="20" as="geometry" />
        </mxCell>
        <mxCell id="P7hi3-GjARlAsn2LffGV-30" style="edgeStyle=orthogonalEdgeStyle;rounded=0;orthogonalLoop=1;jettySize=auto;html=1;exitX=0;exitY=0.5;exitDx=0;exitDy=0;entryX=0.5;entryY=0;entryDx=0;entryDy=0;strokeWidth=0.5;" parent="1" source="OlVB1A8E8Q_b--ozMuMu-11" target="OlVB1A8E8Q_b--ozMuMu-74" edge="1">
          <mxGeometry relative="1" as="geometry">
            <Array as="points">
              <mxPoint x="-59" y="977" />
            </Array>
          </mxGeometry>
        </mxCell>
        <mxCell id="OlVB1A8E8Q_b--ozMuMu-42" value="Да&lt;span style=&quot;color: rgba(0 , 0 , 0 , 0) ; font-family: monospace ; font-size: 0px&quot;&gt;%3CmxGraphModel%3E%3Croot%3E%3CmxCell%20id%3D%220%22%2F%3E%3CmxCell%20id%3D%221%22%20parent%3D%220%22%2F%3E%3CmxCell%20id%3D%222%22%20value%3D%22%22%20style%3D%22endArrow%3Dclassic%3Bhtml%3D1%3BentryX%3D0.5%3BentryY%3D0%3BentryDx%3D0%3BentryDy%3D0%3B%22%20edge%3D%221%22%20parent%3D%221%22%3E%3CmxGeometry%20width%3D%2250%22%20height%3D%2250%22%20relative%3D%221%22%20as%3D%22geometry%22%3E%3CmxPoint%20x%3D%22-40%22%20y%3D%22280%22%20as%3D%22sourcePoint%22%2F%3E%3CmxPoint%20x%3D%22-40%22%20y%3D%22360%22%20as%3D%22targetPoint%22%2F%3E%3C%2FmxGeometry%3E%3C%2FmxCell%3E%3C%2Froot%3E%3C%2FmxGraphModel%3E&lt;/span&gt;&lt;span style=&quot;color: rgba(0 , 0 , 0 , 0) ; font-family: monospace ; font-size: 0px&quot;&gt;%3CmxGraphModel%3E%3Croot%3E%3CmxCell%20id%3D%220%22%2F%3E%3CmxCell%20id%3D%221%22%20parent%3D%220%22%2F%3E%3CmxCell%20id%3D%222%22%20value%3D%22%22%20style%3D%22endArrow%3Dclassic%3Bhtml%3D1%3BentryX%3D0.5%3BentryY%3D0%3BentryDx%3D0%3BentryDy%3D0%3B%22%20edge%3D%221%22%20parent%3D%221%22%3E%3CmxGeometry%20width%3D%2250%22%20height%3D%2250%22%20relative%3D%221%22%20as%3D%22geometry%22%3E%3CmxPoint%20x%3D%22-40%22%20y%3D%22280%22%20as%3D%22sourcePoint%22%2F%3E%3CmxPoint%20x%3D%22-40%22%20y%3D%22360%22%20as%3D%22targetPoint%22%2F%3E%3C%2FmxGeometry%3E%3C%2FmxCell%3E%3C%2Froot%3E%3C%2FmxGraphModel%3E&lt;/span&gt;" style="text;html=1;strokeColor=none;fillColor=none;align=center;verticalAlign=middle;whiteSpace=wrap;rounded=0;strokeWidth=0.5;" parent="1" vertex="1">
          <mxGeometry x="-51" y="960" width="40" height="20" as="geometry" />
        </mxCell>
        <mxCell id="OlVB1A8E8Q_b--ozMuMu-43" value="Нет" style="text;html=1;strokeColor=none;fillColor=none;align=center;verticalAlign=middle;whiteSpace=wrap;rounded=0;strokeWidth=0.5;" parent="1" vertex="1">
          <mxGeometry x="122" y="960" width="40" height="20" as="geometry" />
        </mxCell>
        <mxCell id="OlVB1A8E8Q_b--ozMuMu-44" value="Нет" style="text;html=1;strokeColor=none;fillColor=none;align=center;verticalAlign=middle;whiteSpace=wrap;rounded=0;strokeWidth=0.5;" parent="1" vertex="1">
          <mxGeometry x="131" y="380" width="40" height="20" as="geometry" />
        </mxCell>
        <mxCell id="OlVB1A8E8Q_b--ozMuMu-45" value="Да&lt;span style=&quot;color: rgba(0 , 0 , 0 , 0) ; font-family: monospace ; font-size: 0px&quot;&gt;%3CmxGraphModel%3E%3Croot%3E%3CmxCell%20id%3D%220%22%2F%3E%3CmxCell%20id%3D%221%22%20parent%3D%220%22%2F%3E%3CmxCell%20id%3D%222%22%20value%3D%22%22%20style%3D%22endArrow%3Dclassic%3Bhtml%3D1%3BentryX%3D0.5%3BentryY%3D0%3BentryDx%3D0%3BentryDy%3D0%3B%22%20edge%3D%221%22%20parent%3D%221%22%3E%3CmxGeometry%20width%3D%2250%22%20height%3D%2250%22%20relative%3D%221%22%20as%3D%22geometry%22%3E%3CmxPoint%20x%3D%22-40%22%20y%3D%22280%22%20as%3D%22sourcePoint%22%2F%3E%3CmxPoint%20x%3D%22-40%22%20y%3D%22360%22%20as%3D%22targetPoint%22%2F%3E%3C%2FmxGeometry%3E%3C%2FmxCell%3E%3C%2Froot%3E%3C%2FmxGraphModel%3E&lt;/span&gt;&lt;span style=&quot;color: rgba(0 , 0 , 0 , 0) ; font-family: monospace ; font-size: 0px&quot;&gt;%3CmxGraphModel%3E%3Croot%3E%3CmxCell%20id%3D%220%22%2F%3E%3CmxCell%20id%3D%221%22%20parent%3D%220%22%2F%3E%3CmxCell%20id%3D%222%22%20value%3D%22%22%20style%3D%22endArrow%3Dclassic%3Bhtml%3D1%3BentryX%3D0.5%3BentryY%3D0%3BentryDx%3D0%3BentryDy%3D0%3B%22%20edge%3D%221%22%20parent%3D%221%22%3E%3CmxGeometry%20width%3D%2250%22%20height%3D%2250%22%20relative%3D%221%22%20as%3D%22geometry%22%3E%3CmxPoint%20x%3D%22-40%22%20y%3D%22280%22%20as%3D%22sourcePoint%22%2F%3E%3CmxPoint%20x%3D%22-40%22%20y%3D%22360%22%20as%3D%22targetPoint%22%2F%3E%3C%2FmxGeometry%3E%3C%2FmxCell%3E%3C%2Froot%3E%3C%2FmxGraphModel%3E&lt;/span&gt;" style="text;html=1;strokeColor=none;fillColor=none;align=center;verticalAlign=middle;whiteSpace=wrap;rounded=0;strokeWidth=0.5;" parent="1" vertex="1">
          <mxGeometry x="670" y="380" width="40" height="20" as="geometry" />
        </mxCell>
        <mxCell id="OlVB1A8E8Q_b--ozMuMu-46" value="Да&lt;span style=&quot;color: rgba(0 , 0 , 0 , 0) ; font-family: monospace ; font-size: 0px&quot;&gt;%3CmxGraphModel%3E%3Croot%3E%3CmxCell%20id%3D%220%22%2F%3E%3CmxCell%20id%3D%221%22%20parent%3D%220%22%2F%3E%3CmxCell%20id%3D%222%22%20value%3D%22%22%20style%3D%22endArrow%3Dclassic%3Bhtml%3D1%3BentryX%3D0.5%3BentryY%3D0%3BentryDx%3D0%3BentryDy%3D0%3B%22%20edge%3D%221%22%20parent%3D%221%22%3E%3CmxGeometry%20width%3D%2250%22%20height%3D%2250%22%20relative%3D%221%22%20as%3D%22geometry%22%3E%3CmxPoint%20x%3D%22-40%22%20y%3D%22280%22%20as%3D%22sourcePoint%22%2F%3E%3CmxPoint%20x%3D%22-40%22%20y%3D%22360%22%20as%3D%22targetPoint%22%2F%3E%3C%2FmxGeometry%3E%3C%2FmxCell%3E%3C%2Froot%3E%3C%2FmxGraphModel%3E&lt;/span&gt;&lt;span style=&quot;color: rgba(0 , 0 , 0 , 0) ; font-family: monospace ; font-size: 0px&quot;&gt;%3CmxGraphModel%3E%3Croot%3E%3CmxCell%20id%3D%220%22%2F%3E%3CmxCell%20id%3D%221%22%20parent%3D%220%22%2F%3E%3CmxCell%20id%3D%222%22%20value%3D%22%22%20style%3D%22endArrow%3Dclassic%3Bhtml%3D1%3BentryX%3D0.5%3BentryY%3D0%3BentryDx%3D0%3BentryDy%3D0%3B%22%20edge%3D%221%22%20parent%3D%221%22%3E%3CmxGeometry%20width%3D%2250%22%20height%3D%2250%22%20relative%3D%221%22%20as%3D%22geometry%22%3E%3CmxPoint%20x%3D%22-40%22%20y%3D%22280%22%20as%3D%22sourcePoint%22%2F%3E%3CmxPoint%20x%3D%22-40%22%20y%3D%22360%22%20as%3D%22targetPoint%22%2F%3E%3C%2FmxGeometry%3E%3C%2FmxCell%3E%3C%2Froot%3E%3C%2FmxGraphModel%3E&lt;/span&gt;" style="text;html=1;strokeColor=none;fillColor=none;align=center;verticalAlign=middle;whiteSpace=wrap;rounded=0;strokeWidth=0.5;" parent="1" vertex="1">
          <mxGeometry x="779.5" y="950" width="40" height="20" as="geometry" />
        </mxCell>
        <mxCell id="OlVB1A8E8Q_b--ozMuMu-47" value="Нет" style="text;html=1;strokeColor=none;fillColor=none;align=center;verticalAlign=middle;whiteSpace=wrap;rounded=0;strokeWidth=0.5;" parent="1" vertex="1">
          <mxGeometry x="-88" y="490" width="40" height="20" as="geometry" />
        </mxCell>
        <mxCell id="OlVB1A8E8Q_b--ozMuMu-48" value="Нет" style="text;html=1;strokeColor=none;fillColor=none;align=center;verticalAlign=middle;whiteSpace=wrap;rounded=0;strokeWidth=0.5;" parent="1" vertex="1">
          <mxGeometry x="692" y="490" width="40" height="20" as="geometry" />
        </mxCell>
        <mxCell id="OlVB1A8E8Q_b--ozMuMu-73" value="" style="rounded=0;whiteSpace=wrap;html=1;strokeWidth=0.5;" parent="1" vertex="1">
          <mxGeometry x="-340" y="630" width="120" height="60" as="geometry" />
        </mxCell>
        <mxCell id="P7hi3-GjARlAsn2LffGV-23" style="edgeStyle=orthogonalEdgeStyle;rounded=0;orthogonalLoop=1;jettySize=auto;html=1;exitX=0.5;exitY=1;exitDx=0;exitDy=0;strokeWidth=0.5;" parent="1" source="OlVB1A8E8Q_b--ozMuMu-74" edge="1">
          <mxGeometry relative="1" as="geometry">
            <mxPoint x="60" y="1249.9999999999995" as="targetPoint" />
            <Array as="points">
              <mxPoint x="-59" y="1250" />
            </Array>
          </mxGeometry>
        </mxCell>
        <mxCell id="OlVB1A8E8Q_b--ozMuMu-74" value="&#xa;&#xa;&lt;span style=&quot;color: rgb(0, 0, 0); font-family: helvetica; font-size: 12px; font-style: normal; font-weight: 400; letter-spacing: normal; text-align: center; text-indent: 0px; text-transform: none; word-spacing: 0px; background-color: rgb(248, 249, 250); display: inline; float: none;&quot;&gt;Экспорт данных, сформированных исходя из заданных параметров&lt;/span&gt;&#xa;&#xa;" style="rounded=0;whiteSpace=wrap;html=1;strokeWidth=0.5;" parent="1" vertex="1">
          <mxGeometry x="-130" y="1090" width="142" height="95" as="geometry" />
        </mxCell>
        <mxCell id="OlVB1A8E8Q_b--ozMuMu-75" value="&#xa;&#xa;&lt;span style=&quot;color: rgb(0, 0, 0); font-family: helvetica; font-size: 12px; font-style: normal; font-weight: 400; letter-spacing: normal; text-align: center; text-indent: 0px; text-transform: none; word-spacing: 0px; background-color: rgb(248, 249, 250); display: inline; float: none;&quot;&gt;Экспорт данных, сформированных исходя из заданных параметров&lt;/span&gt;&#xa;&#xa;" style="rounded=0;whiteSpace=wrap;html=1;strokeWidth=0.5;" parent="1" vertex="1">
          <mxGeometry x="-111" y="595" width="142" height="95" as="geometry" />
        </mxCell>
        <mxCell id="OlVB1A8E8Q_b--ozMuMu-76" value="Экспорт данных, сформированных исходя из заданных параметров" style="rounded=0;whiteSpace=wrap;html=1;strokeWidth=0.5;" parent="1" vertex="1">
          <mxGeometry x="-351" y="595" width="142" height="95" as="geometry" />
        </mxCell>
        <mxCell id="P7hi3-GjARlAsn2LffGV-22" style="edgeStyle=orthogonalEdgeStyle;rounded=0;orthogonalLoop=1;jettySize=auto;html=1;exitX=0.5;exitY=1;exitDx=0;exitDy=0;strokeWidth=0.5;" parent="1" source="OlVB1A8E8Q_b--ozMuMu-77" edge="1">
          <mxGeometry relative="1" as="geometry">
            <mxPoint x="619.9999999999995" y="789.9999999999995" as="targetPoint" />
            <Array as="points">
              <mxPoint x="501" y="790" />
            </Array>
          </mxGeometry>
        </mxCell>
        <mxCell id="OlVB1A8E8Q_b--ozMuMu-77" value="&#xa;&#xa;&lt;span style=&quot;color: rgb(0, 0, 0); font-family: helvetica; font-size: 12px; font-style: normal; font-weight: 400; letter-spacing: normal; text-align: center; text-indent: 0px; text-transform: none; word-spacing: 0px; background-color: rgb(248, 249, 250); display: inline; float: none;&quot;&gt;Экспорт данных, сформированных исходя из заданных параметров&lt;/span&gt;&#xa;&#xa;" style="rounded=0;whiteSpace=wrap;html=1;strokeWidth=0.5;" parent="1" vertex="1">
          <mxGeometry x="430" y="595" width="142" height="95" as="geometry" />
        </mxCell>
        <mxCell id="P7hi3-GjARlAsn2LffGV-24" style="edgeStyle=orthogonalEdgeStyle;rounded=0;orthogonalLoop=1;jettySize=auto;html=1;exitX=0.5;exitY=1;exitDx=0;exitDy=0;strokeWidth=0.5;" parent="1" source="OlVB1A8E8Q_b--ozMuMu-78" edge="1">
          <mxGeometry relative="1" as="geometry">
            <mxPoint x="60" y="1249.9999999999995" as="targetPoint" />
            <Array as="points">
              <mxPoint x="181" y="1250" />
            </Array>
          </mxGeometry>
        </mxCell>
        <mxCell id="OlVB1A8E8Q_b--ozMuMu-78" value="&#xa;&#xa;&lt;span style=&quot;color: rgb(0, 0, 0); font-family: helvetica; font-size: 12px; font-style: normal; font-weight: 400; letter-spacing: normal; text-align: center; text-indent: 0px; text-transform: none; word-spacing: 0px; background-color: rgb(248, 249, 250); display: inline; float: none;&quot;&gt;Экспорт данных, сформированных исходя из заданных параметров&lt;/span&gt;&#xa;&#xa;" style="rounded=0;whiteSpace=wrap;html=1;strokeWidth=0.5;" parent="1" vertex="1">
          <mxGeometry x="110" y="1090" width="142" height="95" as="geometry" />
        </mxCell>
        <mxCell id="P7hi3-GjARlAsn2LffGV-35" style="edgeStyle=orthogonalEdgeStyle;rounded=0;orthogonalLoop=1;jettySize=auto;html=1;exitX=0.5;exitY=1;exitDx=0;exitDy=0;strokeWidth=0.5;" parent="1" source="OlVB1A8E8Q_b--ozMuMu-79" edge="1">
          <mxGeometry relative="1" as="geometry">
            <mxPoint x="899.9999999999995" y="1249.9999999999995" as="targetPoint" />
            <Array as="points">
              <mxPoint x="763" y="1250" />
            </Array>
          </mxGeometry>
        </mxCell>
        <mxCell id="OlVB1A8E8Q_b--ozMuMu-79" value="&lt;span style=&quot;color: rgb(0 , 0 , 0) ; font-family: &amp;#34;helvetica&amp;#34; ; font-size: 12px ; font-style: normal ; font-weight: 400 ; letter-spacing: normal ; text-align: center ; text-indent: 0px ; text-transform: none ; word-spacing: 0px ; background-color: rgb(248 , 249 , 250) ; display: inline ; float: none&quot;&gt;Экспорт данных, сформированных исходя из заданных параметров&lt;/span&gt;" style="rounded=0;whiteSpace=wrap;html=1;strokeWidth=0.5;" parent="1" vertex="1">
          <mxGeometry x="692" y="1090" width="142" height="95" as="geometry" />
        </mxCell>
        <mxCell id="P7hi3-GjARlAsn2LffGV-21" style="edgeStyle=orthogonalEdgeStyle;rounded=0;orthogonalLoop=1;jettySize=auto;html=1;exitX=0.5;exitY=1;exitDx=0;exitDy=0;strokeWidth=0.5;" parent="1" source="OlVB1A8E8Q_b--ozMuMu-80" edge="1">
          <mxGeometry relative="1" as="geometry">
            <mxPoint x="619.9999999999995" y="789.9999999999995" as="targetPoint" />
            <Array as="points">
              <mxPoint x="741" y="790" />
            </Array>
          </mxGeometry>
        </mxCell>
        <mxCell id="OlVB1A8E8Q_b--ozMuMu-80" value="&#xa;&#xa;&lt;span style=&quot;color: rgb(0, 0, 0); font-family: helvetica; font-size: 12px; font-style: normal; font-weight: 400; letter-spacing: normal; text-align: center; text-indent: 0px; text-transform: none; word-spacing: 0px; background-color: rgb(248, 249, 250); display: inline; float: none;&quot;&gt;Экспорт данных, сформированных исходя из заданных параметров&lt;/span&gt;&#xa;&#xa;" style="rounded=0;whiteSpace=wrap;html=1;strokeWidth=0.5;" parent="1" vertex="1">
          <mxGeometry x="670" y="595" width="142" height="95" as="geometry" />
        </mxCell>
        <mxCell id="P7hi3-GjARlAsn2LffGV-36" style="edgeStyle=orthogonalEdgeStyle;rounded=0;orthogonalLoop=1;jettySize=auto;html=1;exitX=0.5;exitY=1;exitDx=0;exitDy=0;strokeWidth=0.5;" parent="1" source="OlVB1A8E8Q_b--ozMuMu-81" edge="1">
          <mxGeometry relative="1" as="geometry">
            <mxPoint x="899.9999999999995" y="1249.9999999999995" as="targetPoint" />
            <Array as="points">
              <mxPoint x="1021" y="1250" />
            </Array>
          </mxGeometry>
        </mxCell>
        <mxCell id="OlVB1A8E8Q_b--ozMuMu-81" value="&lt;span style=&quot;color: rgb(0 , 0 , 0) ; font-family: &amp;#34;helvetica&amp;#34; ; font-size: 12px ; font-style: normal ; font-weight: 400 ; letter-spacing: normal ; text-align: center ; text-indent: 0px ; text-transform: none ; word-spacing: 0px ; background-color: rgb(248 , 249 , 250) ; display: inline ; float: none&quot;&gt;Экспорт данных, сформированных исходя из заданных параметров&lt;/span&gt;" style="rounded=0;whiteSpace=wrap;html=1;strokeWidth=0.5;" parent="1" vertex="1">
          <mxGeometry x="950" y="1090" width="142" height="95" as="geometry" />
        </mxCell>
        <mxCell id="P7hi3-GjARlAsn2LffGV-14" style="edgeStyle=orthogonalEdgeStyle;rounded=0;orthogonalLoop=1;jettySize=auto;html=1;exitX=0.5;exitY=1;exitDx=0;exitDy=0;entryX=0.5;entryY=0;entryDx=0;entryDy=0;strokeWidth=0.5;" parent="1" source="OlVB1A8E8Q_b--ozMuMu-82" target="OlVB1A8E8Q_b--ozMuMu-86" edge="1">
          <mxGeometry relative="1" as="geometry" />
        </mxCell>
        <mxCell id="OlVB1A8E8Q_b--ozMuMu-82" value="Принимаем от формы параметры с указанием периода" style="rounded=0;whiteSpace=wrap;html=1;strokeWidth=0.5;" parent="1" vertex="1">
          <mxGeometry x="149" y="452.5" width="142" height="95" as="geometry" />
        </mxCell>
        <mxCell id="P7hi3-GjARlAsn2LffGV-19" style="edgeStyle=orthogonalEdgeStyle;rounded=0;orthogonalLoop=1;jettySize=auto;html=1;exitX=0.5;exitY=1;exitDx=0;exitDy=0;entryX=0.5;entryY=0;entryDx=0;entryDy=0;strokeWidth=0.5;" parent="1" source="OlVB1A8E8Q_b--ozMuMu-84" target="OlVB1A8E8Q_b--ozMuMu-88" edge="1">
          <mxGeometry relative="1" as="geometry" />
        </mxCell>
        <mxCell id="OlVB1A8E8Q_b--ozMuMu-84" value="&lt;span&gt;Принимаем от формы параметры с указанием периода&lt;/span&gt;" style="rounded=0;whiteSpace=wrap;html=1;strokeWidth=0.5;" parent="1" vertex="1">
          <mxGeometry x="989" y="452.5" width="142" height="95" as="geometry" />
        </mxCell>
        <mxCell id="P7hi3-GjARlAsn2LffGV-15" style="edgeStyle=orthogonalEdgeStyle;rounded=0;orthogonalLoop=1;jettySize=auto;html=1;exitX=0.5;exitY=1;exitDx=0;exitDy=0;entryX=0.5;entryY=0;entryDx=0;entryDy=0;strokeWidth=0.5;" parent="1" source="OlVB1A8E8Q_b--ozMuMu-86" target="OlVB1A8E8Q_b--ozMuMu-130" edge="1">
          <mxGeometry relative="1" as="geometry">
            <mxPoint x="220.2352941176473" y="699.9999999999995" as="targetPoint" />
          </mxGeometry>
        </mxCell>
        <mxCell id="OlVB1A8E8Q_b--ozMuMu-86" value="Проверка и обработка случая, когда не указан День или Час" style="shape=process;whiteSpace=wrap;html=1;backgroundOutline=1;strokeWidth=0.5;" parent="1" vertex="1">
          <mxGeometry x="149" y="580" width="142" height="95" as="geometry" />
        </mxCell>
        <mxCell id="P7hi3-GjARlAsn2LffGV-20" style="edgeStyle=orthogonalEdgeStyle;rounded=0;orthogonalLoop=1;jettySize=auto;html=1;exitX=0.5;exitY=1;exitDx=0;exitDy=0;entryX=0.5;entryY=0;entryDx=0;entryDy=0;strokeWidth=0.5;" parent="1" source="OlVB1A8E8Q_b--ozMuMu-88" target="OlVB1A8E8Q_b--ozMuMu-132" edge="1">
          <mxGeometry relative="1" as="geometry" />
        </mxCell>
        <mxCell id="OlVB1A8E8Q_b--ozMuMu-88" value="&lt;span&gt;Проверка и обработка случая, когда не указан День или Час&lt;/span&gt;" style="shape=process;whiteSpace=wrap;html=1;backgroundOutline=1;strokeWidth=0.5;" parent="1" vertex="1">
          <mxGeometry x="989" y="580" width="142" height="95" as="geometry" />
        </mxCell>
        <mxCell id="OlVB1A8E8Q_b--ozMuMu-94" value="Выход" style="rounded=1;whiteSpace=wrap;html=1;arcSize=50;strokeWidth=0.5;" parent="1" vertex="1">
          <mxGeometry x="349" y="1350" width="142" height="40.87" as="geometry" />
        </mxCell>
        <mxCell id="OlVB1A8E8Q_b--ozMuMu-95" value="" style="endArrow=none;html=1;exitX=0.5;exitY=1;exitDx=0;exitDy=0;strokeWidth=0.5;" parent="1" source="OlVB1A8E8Q_b--ozMuMu-76" edge="1">
          <mxGeometry width="50" height="50" relative="1" as="geometry">
            <mxPoint x="400" y="790" as="sourcePoint" />
            <mxPoint x="-280" y="790" as="targetPoint" />
            <Array as="points" />
          </mxGeometry>
        </mxCell>
        <mxCell id="OlVB1A8E8Q_b--ozMuMu-99" value="" style="endArrow=none;html=1;exitX=0.5;exitY=1;exitDx=0;exitDy=0;strokeWidth=0.5;" parent="1" edge="1">
          <mxGeometry width="50" height="50" relative="1" as="geometry">
            <mxPoint x="-40" y="690" as="sourcePoint" />
            <mxPoint x="-40" y="790" as="targetPoint" />
            <Array as="points" />
          </mxGeometry>
        </mxCell>
        <mxCell id="OlVB1A8E8Q_b--ozMuMu-109" value="" style="endArrow=classic;html=1;strokeWidth=0.5;" parent="1" edge="1">
          <mxGeometry width="50" height="50" relative="1" as="geometry">
            <mxPoint x="-40" y="790" as="sourcePoint" />
            <mxPoint x="-160" y="790" as="targetPoint" />
            <Array as="points">
              <mxPoint x="-110" y="790" />
              <mxPoint x="-130" y="790" />
            </Array>
          </mxGeometry>
        </mxCell>
        <mxCell id="OlVB1A8E8Q_b--ozMuMu-112" value="" style="endArrow=classic;html=1;strokeWidth=0.5;" parent="1" edge="1">
          <mxGeometry width="50" height="50" relative="1" as="geometry">
            <mxPoint x="-280" y="790" as="sourcePoint" />
            <mxPoint x="-160" y="790" as="targetPoint" />
          </mxGeometry>
        </mxCell>
        <mxCell id="OlVB1A8E8Q_b--ozMuMu-117" value="" style="endArrow=none;html=1;strokeWidth=0.5;" parent="1" edge="1">
          <mxGeometry width="50" height="50" relative="1" as="geometry">
            <mxPoint x="-160" y="1311" as="sourcePoint" />
            <mxPoint x="-160" y="790" as="targetPoint" />
          </mxGeometry>
        </mxCell>
        <mxCell id="OlVB1A8E8Q_b--ozMuMu-119" value="" style="endArrow=classic;html=1;strokeWidth=0.5;" parent="1" edge="1">
          <mxGeometry width="50" height="50" relative="1" as="geometry">
            <mxPoint x="-160" y="1310" as="sourcePoint" />
            <mxPoint x="420" y="1310" as="targetPoint" />
          </mxGeometry>
        </mxCell>
        <mxCell id="OlVB1A8E8Q_b--ozMuMu-122" value="" style="endArrow=classic;html=1;strokeWidth=0.5;" parent="1" edge="1">
          <mxGeometry width="50" height="50" relative="1" as="geometry">
            <mxPoint x="620" y="790" as="sourcePoint" />
            <mxPoint x="620" y="1311" as="targetPoint" />
          </mxGeometry>
        </mxCell>
        <mxCell id="OlVB1A8E8Q_b--ozMuMu-123" value="" style="endArrow=classic;html=1;strokeWidth=0.5;" parent="1" edge="1">
          <mxGeometry width="50" height="50" relative="1" as="geometry">
            <mxPoint x="900" y="1251" as="sourcePoint" />
            <mxPoint x="900" y="1311" as="targetPoint" />
          </mxGeometry>
        </mxCell>
        <mxCell id="OlVB1A8E8Q_b--ozMuMu-124" value="" style="endArrow=classic;html=1;strokeWidth=0.5;" parent="1" edge="1">
          <mxGeometry width="50" height="50" relative="1" as="geometry">
            <mxPoint x="420" y="1310" as="sourcePoint" />
            <mxPoint x="420" y="1350" as="targetPoint" />
            <Array as="points">
              <mxPoint x="420" y="1320" />
              <mxPoint x="420" y="1330" />
            </Array>
          </mxGeometry>
        </mxCell>
        <mxCell id="OlVB1A8E8Q_b--ozMuMu-126" value="Подготовка входных массивов" style="rounded=0;whiteSpace=wrap;html=1;strokeWidth=0.5;" parent="1" vertex="1">
          <mxGeometry x="709" y="222.5" width="142" height="95" as="geometry" />
        </mxCell>
        <mxCell id="OlVB1A8E8Q_b--ozMuMu-127" value="Подготовка входных массивов" style="rounded=0;whiteSpace=wrap;html=1;strokeWidth=0.5;" parent="1" vertex="1">
          <mxGeometry x="-11" y="222.5" width="142" height="95" as="geometry" />
        </mxCell>
        <mxCell id="OlVB1A8E8Q_b--ozMuMu-128" value="" style="endArrow=classic;html=1;exitX=0.5;exitY=1;exitDx=0;exitDy=0;strokeWidth=0.5;" parent="1" source="OlVB1A8E8Q_b--ozMuMu-127" edge="1">
          <mxGeometry width="50" height="50" relative="1" as="geometry">
            <mxPoint x="580" y="660" as="sourcePoint" />
            <mxPoint x="60" y="350" as="targetPoint" />
          </mxGeometry>
        </mxCell>
        <mxCell id="OlVB1A8E8Q_b--ozMuMu-129" value="" style="endArrow=classic;html=1;exitX=0.5;exitY=1;exitDx=0;exitDy=0;entryX=0.5;entryY=0;entryDx=0;entryDy=0;strokeWidth=0.5;" parent="1" source="OlVB1A8E8Q_b--ozMuMu-126" target="OlVB1A8E8Q_b--ozMuMu-6" edge="1">
          <mxGeometry width="50" height="50" relative="1" as="geometry">
            <mxPoint x="70" y="320" as="sourcePoint" />
            <mxPoint x="70" y="360" as="targetPoint" />
          </mxGeometry>
        </mxCell>
        <mxCell id="OlVB1A8E8Q_b--ozMuMu-139" style="edgeStyle=orthogonalEdgeStyle;rounded=0;orthogonalLoop=1;jettySize=auto;html=1;exitX=0.5;exitY=1;exitDx=0;exitDy=0;entryX=0.5;entryY=0;entryDx=0;entryDy=0;strokeWidth=0.5;" parent="1" source="OlVB1A8E8Q_b--ozMuMu-130" target="OlVB1A8E8Q_b--ozMuMu-134" edge="1">
          <mxGeometry relative="1" as="geometry" />
        </mxCell>
        <mxCell id="OlVB1A8E8Q_b--ozMuMu-130" value="Проверка корректности задания временного интервала" style="shape=process;whiteSpace=wrap;html=1;backgroundOutline=1;strokeWidth=0.5;" parent="1" vertex="1">
          <mxGeometry x="149" y="705" width="142" height="95" as="geometry" />
        </mxCell>
        <mxCell id="OlVB1A8E8Q_b--ozMuMu-151" style="edgeStyle=orthogonalEdgeStyle;rounded=0;orthogonalLoop=1;jettySize=auto;html=1;exitX=0.5;exitY=1;exitDx=0;exitDy=0;entryX=0.5;entryY=0;entryDx=0;entryDy=0;strokeWidth=0.5;" parent="1" source="OlVB1A8E8Q_b--ozMuMu-132" target="OlVB1A8E8Q_b--ozMuMu-145" edge="1">
          <mxGeometry relative="1" as="geometry" />
        </mxCell>
        <mxCell id="OlVB1A8E8Q_b--ozMuMu-132" value="Проверка корректности задания временного интервала" style="shape=process;whiteSpace=wrap;html=1;backgroundOutline=1;strokeWidth=0.5;" parent="1" vertex="1">
          <mxGeometry x="989" y="705" width="142" height="95" as="geometry" />
        </mxCell>
        <mxCell id="P7hi3-GjARlAsn2LffGV-26" style="edgeStyle=orthogonalEdgeStyle;rounded=0;orthogonalLoop=1;jettySize=auto;html=1;exitX=0;exitY=0.5;exitDx=0;exitDy=0;entryX=0.5;entryY=0;entryDx=0;entryDy=0;strokeWidth=0.5;" parent="1" source="OlVB1A8E8Q_b--ozMuMu-134" target="OlVB1A8E8Q_b--ozMuMu-11" edge="1">
          <mxGeometry relative="1" as="geometry" />
        </mxCell>
        <mxCell id="P7hi3-GjARlAsn2LffGV-27" style="edgeStyle=orthogonalEdgeStyle;rounded=0;orthogonalLoop=1;jettySize=auto;html=1;exitX=1;exitY=0.5;exitDx=0;exitDy=0;entryX=0.5;entryY=0;entryDx=0;entryDy=0;strokeWidth=0.5;" parent="1" source="OlVB1A8E8Q_b--ozMuMu-134" target="OlVB1A8E8Q_b--ozMuMu-142" edge="1">
          <mxGeometry relative="1" as="geometry" />
        </mxCell>
        <mxCell id="OlVB1A8E8Q_b--ozMuMu-134" value="&lt;font style=&quot;font-size: 10px&quot;&gt;Данные корректны?&lt;/font&gt;" style="rhombus;whiteSpace=wrap;html=1;strokeWidth=0.5;" parent="1" vertex="1">
          <mxGeometry x="149" y="850" width="142" height="95" as="geometry" />
        </mxCell>
        <mxCell id="OlVB1A8E8Q_b--ozMuMu-140" value="Да&lt;span style=&quot;color: rgba(0 , 0 , 0 , 0) ; font-family: monospace ; font-size: 0px&quot;&gt;%3CmxGraphModel%3E%3Croot%3E%3CmxCell%20id%3D%220%22%2F%3E%3CmxCell%20id%3D%221%22%20parent%3D%220%22%2F%3E%3CmxCell%20id%3D%222%22%20value%3D%22%22%20style%3D%22endArrow%3Dclassic%3Bhtml%3D1%3BentryX%3D0.5%3BentryY%3D0%3BentryDx%3D0%3BentryDy%3D0%3B%22%20edge%3D%221%22%20parent%3D%221%22%3E%3CmxGeometry%20width%3D%2250%22%20height%3D%2250%22%20relative%3D%221%22%20as%3D%22geometry%22%3E%3CmxPoint%20x%3D%22-40%22%20y%3D%22280%22%20as%3D%22sourcePoint%22%2F%3E%3CmxPoint%20x%3D%22-40%22%20y%3D%22360%22%20as%3D%22targetPoint%22%2F%3E%3C%2FmxGeometry%3E%3C%2FmxCell%3E%3C%2Froot%3E%3C%2FmxGraphModel%3E&lt;/span&gt;&lt;span style=&quot;color: rgba(0 , 0 , 0 , 0) ; font-family: monospace ; font-size: 0px&quot;&gt;%3CmxGraphModel%3E%3Croot%3E%3CmxCell%20id%3D%220%22%2F%3E%3CmxCell%20id%3D%221%22%20parent%3D%220%22%2F%3E%3CmxCell%20id%3D%222%22%20value%3D%22%22%20style%3D%22endArrow%3Dclassic%3Bhtml%3D1%3BentryX%3D0.5%3BentryY%3D0%3BentryDx%3D0%3BentryDy%3D0%3B%22%20edge%3D%221%22%20parent%3D%221%22%3E%3CmxGeometry%20width%3D%2250%22%20height%3D%2250%22%20relative%3D%221%22%20as%3D%22geometry%22%3E%3CmxPoint%20x%3D%22-40%22%20y%3D%22280%22%20as%3D%22sourcePoint%22%2F%3E%3CmxPoint%20x%3D%22-40%22%20y%3D%22360%22%20as%3D%22targetPoint%22%2F%3E%3C%2FmxGeometry%3E%3C%2FmxCell%3E%3C%2Froot%3E%3C%2FmxGraphModel%3E&lt;/span&gt;" style="text;html=1;strokeColor=none;fillColor=none;align=center;verticalAlign=middle;whiteSpace=wrap;rounded=0;strokeWidth=0.5;" parent="1" vertex="1">
          <mxGeometry x="100" y="880" width="40" height="20" as="geometry" />
        </mxCell>
        <mxCell id="OlVB1A8E8Q_b--ozMuMu-141" value="Нет" style="text;html=1;strokeColor=none;fillColor=none;align=center;verticalAlign=middle;whiteSpace=wrap;rounded=0;strokeWidth=0.5;" parent="1" vertex="1">
          <mxGeometry x="291" y="880" width="70" height="20" as="geometry" />
        </mxCell>
        <mxCell id="OlVB1A8E8Q_b--ozMuMu-142" value="Вывод шаблона с сообщением об &lt;br&gt;ошибке" style="shape=parallelogram;perimeter=parallelogramPerimeter;whiteSpace=wrap;html=1;fixedSize=1;strokeWidth=0.5;" parent="1" vertex="1">
          <mxGeometry x="349" y="990" width="142" height="95" as="geometry" />
        </mxCell>
        <mxCell id="OlVB1A8E8Q_b--ozMuMu-144" value="" style="endArrow=classic;html=1;exitX=0.5;exitY=1;exitDx=0;exitDy=0;strokeWidth=0.5;" parent="1" source="OlVB1A8E8Q_b--ozMuMu-142" edge="1">
          <mxGeometry width="50" height="50" relative="1" as="geometry">
            <mxPoint x="580" y="1130" as="sourcePoint" />
            <mxPoint x="420" y="1310" as="targetPoint" />
          </mxGeometry>
        </mxCell>
        <mxCell id="P7hi3-GjARlAsn2LffGV-28" style="edgeStyle=orthogonalEdgeStyle;rounded=0;orthogonalLoop=1;jettySize=auto;html=1;exitX=0;exitY=0.5;exitDx=0;exitDy=0;entryX=0.5;entryY=0;entryDx=0;entryDy=0;strokeWidth=0.5;" parent="1" source="OlVB1A8E8Q_b--ozMuMu-145" target="OlVB1A8E8Q_b--ozMuMu-10" edge="1">
          <mxGeometry relative="1" as="geometry" />
        </mxCell>
        <mxCell id="P7hi3-GjARlAsn2LffGV-29" style="edgeStyle=orthogonalEdgeStyle;rounded=0;orthogonalLoop=1;jettySize=auto;html=1;exitX=1;exitY=0.5;exitDx=0;exitDy=0;entryX=0.5;entryY=0;entryDx=0;entryDy=0;strokeWidth=0.5;" parent="1" source="OlVB1A8E8Q_b--ozMuMu-145" target="OlVB1A8E8Q_b--ozMuMu-155" edge="1">
          <mxGeometry relative="1" as="geometry" />
        </mxCell>
        <mxCell id="OlVB1A8E8Q_b--ozMuMu-145" value="&lt;font style=&quot;font-size: 10px&quot;&gt;Данные корректны?&lt;/font&gt;" style="rhombus;whiteSpace=wrap;html=1;strokeWidth=0.5;" parent="1" vertex="1">
          <mxGeometry x="989" y="850" width="142" height="95" as="geometry" />
        </mxCell>
        <mxCell id="OlVB1A8E8Q_b--ozMuMu-148" value="Да&lt;span style=&quot;color: rgba(0 , 0 , 0 , 0) ; font-family: monospace ; font-size: 0px&quot;&gt;%3CmxGraphModel%3E%3Croot%3E%3CmxCell%20id%3D%220%22%2F%3E%3CmxCell%20id%3D%221%22%20parent%3D%220%22%2F%3E%3CmxCell%20id%3D%222%22%20value%3D%22%22%20style%3D%22endArrow%3Dclassic%3Bhtml%3D1%3BentryX%3D0.5%3BentryY%3D0%3BentryDx%3D0%3BentryDy%3D0%3B%22%20edge%3D%221%22%20parent%3D%221%22%3E%3CmxGeometry%20width%3D%2250%22%20height%3D%2250%22%20relative%3D%221%22%20as%3D%22geometry%22%3E%3CmxPoint%20x%3D%22-40%22%20y%3D%22280%22%20as%3D%22sourcePoint%22%2F%3E%3CmxPoint%20x%3D%22-40%22%20y%3D%22360%22%20as%3D%22targetPoint%22%2F%3E%3C%2FmxGeometry%3E%3C%2FmxCell%3E%3C%2Froot%3E%3C%2FmxGraphModel%3E&lt;/span&gt;&lt;span style=&quot;color: rgba(0 , 0 , 0 , 0) ; font-family: monospace ; font-size: 0px&quot;&gt;%3CmxGraphModel%3E%3Croot%3E%3CmxCell%20id%3D%220%22%2F%3E%3CmxCell%20id%3D%221%22%20parent%3D%220%22%2F%3E%3CmxCell%20id%3D%222%22%20value%3D%22%22%20style%3D%22endArrow%3Dclassic%3Bhtml%3D1%3BentryX%3D0.5%3BentryY%3D0%3BentryDx%3D0%3BentryDy%3D0%3B%22%20edge%3D%221%22%20parent%3D%221%22%3E%3CmxGeometry%20width%3D%2250%22%20height%3D%2250%22%20relative%3D%221%22%20as%3D%22geometry%22%3E%3CmxPoint%20x%3D%22-40%22%20y%3D%22280%22%20as%3D%22sourcePoint%22%2F%3E%3CmxPoint%20x%3D%22-40%22%20y%3D%22360%22%20as%3D%22targetPoint%22%2F%3E%3C%2FmxGeometry%3E%3C%2FmxCell%3E%3C%2Froot%3E%3C%2FmxGraphModel%3E&lt;/span&gt;" style="text;html=1;strokeColor=none;fillColor=none;align=center;verticalAlign=middle;whiteSpace=wrap;rounded=0;strokeWidth=0.5;" parent="1" vertex="1">
          <mxGeometry x="940" y="800" width="40" height="20" as="geometry" />
        </mxCell>
        <mxCell id="OlVB1A8E8Q_b--ozMuMu-149" value="Нет" style="text;html=1;strokeColor=none;fillColor=none;align=center;verticalAlign=middle;whiteSpace=wrap;rounded=0;strokeWidth=0.5;" parent="1" vertex="1">
          <mxGeometry x="1124" y="800" width="70" height="20" as="geometry" />
        </mxCell>
        <mxCell id="P7hi3-GjARlAsn2LffGV-37" style="edgeStyle=orthogonalEdgeStyle;rounded=0;orthogonalLoop=1;jettySize=auto;html=1;exitX=0.5;exitY=1;exitDx=0;exitDy=0;strokeWidth=0.5;" parent="1" source="OlVB1A8E8Q_b--ozMuMu-155" edge="1">
          <mxGeometry relative="1" as="geometry">
            <mxPoint x="419.99999999999955" y="1309.9999999999995" as="targetPoint" />
            <Array as="points">
              <mxPoint x="1261" y="1310" />
            </Array>
          </mxGeometry>
        </mxCell>
        <mxCell id="OlVB1A8E8Q_b--ozMuMu-155" value="Вывод шаблона с сообщением об &lt;br&gt;ошибке" style="shape=parallelogram;perimeter=parallelogramPerimeter;whiteSpace=wrap;html=1;fixedSize=1;strokeWidth=0.5;" parent="1" vertex="1">
          <mxGeometry x="1190" y="980" width="142" height="95" as="geometry" />
        </mxCell>
        <mxCell id="P7hi3-GjARlAsn2LffGV-25" value="" style="endArrow=classic;html=1;strokeWidth=0.5;" parent="1" edge="1">
          <mxGeometry width="50" height="50" relative="1" as="geometry">
            <mxPoint x="60" y="1250" as="sourcePoint" />
            <mxPoint x="60" y="1310" as="targetPoint" />
          </mxGeometry>
        </mxCell>
      </root>
    </mxGraphModel>
  </diagram>
</mxfile>
